Coordinates
version=1
nRows=11
nColumns=63
inDegrees=yes

Units are S.I. units (second, meters, Newtons, ...)
If the header above contains a line with 'inDegrees', this indicates whether rotational values are in degrees (yes) or radians (no).

endheader
time	pelvis_tilt	pelvis_list	pelvis_rotation	pelvis_tx	pelvis_ty	pelvis_tz	hip_flexion_r	hip_adduction_r	hip_rotation_r	knee_angle_r	knee_angle_r_beta	ankle_angle_r	subtalar_angle_r	mtp_angle_r	hip_flexion_l	hip_adduction_l	hip_rotation_l	knee_angle_l	knee_angle_l_beta	ankle_angle_l	subtalar_angle_l	mtp_angle_l	L5_S1_Flex_Ext	L5_S1_Lat_Bending	L5_S1_axial_rotation	L4_L5_Flex_Ext	L4_L5_Lat_Bending	L4_L5_axial_rotation	L3_L4_Flex_Ext	L3_L4_Lat_Bending	L3_L4_axial_rotation	L2_L3_Flex_Ext	L2_L3_Lat_Bending	L2_L3_axial_rotation	L1_L2_Flex_Ext	L1_L2_Lat_Bending	L1_L2_axial_rotation	L1_T12_Flex_Ext	L1_T12_Lat_Bending	L1_T12_axial_rotation	Abs_r3	Abs_r2	Abs_r1	Abs_t1	Abs_t2	neck_flexion	neck_bending	neck_rotation	arm_flex_r	arm_add_r	arm_rot_r	elbow_flex_r	pro_sup_r	wrist_flex_r	wrist_dev_r	arm_flex_l	arm_add_l	arm_rot_l	elbow_flex_l	pro_sup_l	wrist_flex_l	wrist_dev_l
2.677966	1.076581	-5.361312	85.448147	0.118889	0.478665	0.869774	1.541898	0.756521	15.611910	2.312990	0.040369	20.004568	-8.848519	0.000000	1.942336	-0.795664	-13.093334	3.248859	0.056703	27.576303	1.425230	0.000000	0.196144	0.147669	3.218465	0.364258	0.196399	3.419619	0.322244	0.359042	3.419619	0.224173	0.359042	2.816157	0.182139	0.301126	2.615003	0.112076	0.228739	2.413849	1.401034	1.670457	17.900135	0.000000	0.000000	27.979026	-3.293954	-10.528639	14.576481	-4.283785	68.794978	33.753168	28.125266	-2.708580	-3.158478	22.827297	1.093960	70.742466	36.511346	47.567951	0.343095	9.928718
2.694915	1.063268	-5.394398	85.297984	0.119732	0.478603	0.869355	1.522914	0.796295	15.692523	2.207506	0.038528	19.959927	-8.820463	0.000000	1.854153	-0.815008	-13.314112	3.149229	0.054964	27.379472	1.334075	0.000000	0.212372	0.129747	3.155392	0.394397	0.172564	3.352604	0.348907	0.315468	3.352604	0.242720	0.315468	2.760968	0.197209	0.264581	2.563756	0.121350	0.200979	2.366544	1.516955	1.467728	17.549346	0.000000	0.000000	27.986848	-3.087502	-10.413216	14.488629	-4.770317	62.007166	36.921275	28.470936	-2.612692	-1.323410	21.991396	-0.235387	62.505086	40.008484	52.571812	-0.211314	13.198080
2.711864	1.089822	-5.417241	85.198856	0.120364	0.478535	0.868981	1.498192	0.864592	15.668318	2.120597	0.037011	19.953557	-8.683250	0.000000	1.761310	-0.862107	-13.387433	3.038323	0.053029	27.194092	1.166649	0.000000	0.226014	0.118963	3.087140	0.419731	0.158220	3.280086	0.371319	0.289246	3.280086	0.258312	0.289246	2.701247	0.209877	0.242589	2.508301	0.129145	0.184273	2.315355	1.614399	1.345730	17.169745	0.000000	0.000000	27.995267	-2.997930	-10.316058	14.511237	-5.138521	57.749192	39.495132	28.071526	-2.797608	0.585427	21.328303	-1.358826	55.859824	42.945971	57.290260	-0.559164	15.890874
2.728814	1.144733	-5.441800	85.131422	0.120804	0.478480	0.868638	1.481910	0.949223	15.582872	2.054578	0.035859	19.975630	-8.465845	0.000000	1.672266	-0.925200	-13.336221	2.909189	0.050775	27.006754	0.934346	0.000000	0.238663	0.114124	3.019344	0.443221	0.151784	3.208053	0.392099	0.277480	3.208053	0.272768	0.277480	2.641926	0.221622	0.232721	2.453217	0.136372	0.176777	2.264508	1.704746	1.290989	16.792688	0.000000	0.000000	28.006191	-3.004807	-10.203859	14.626006	-5.350959	56.170643	41.355365	26.846625	-3.197083	2.333055	20.828065	-2.215916	51.116345	45.180545	61.483960	-0.838099	17.837993
2.745763	1.229344	-5.452757	85.091390	0.121088	0.478478	0.868358	1.462273	1.051081	15.394720	2.013665	0.035145	20.041073	-8.095072	0.000000	1.585359	-1.009234	-13.178278	2.790480	0.048703	26.834495	0.632199	0.000000	0.246779	0.114549	2.956606	0.458293	0.152350	3.141394	0.405433	0.278515	3.141394	0.282044	0.278515	2.587031	0.229159	0.233588	2.402243	0.141010	0.177437	2.217455	1.762718	1.295802	16.443757	0.000000	0.000000	28.014638	-3.095142	-10.130084	14.879763	-5.381574	57.346857	42.398040	24.791901	-3.748280	3.812754	20.540292	-2.759071	48.693666	46.586296	65.152695	-0.994341	18.942602
2.762712	1.336234	-5.441893	85.109219	0.121213	0.478575	0.868169	1.426708	1.166130	15.135764	1.988030	0.034698	20.118171	-7.689227	0.000000	1.512010	-1.112176	-12.930760	2.712293	0.047338	26.673504	0.305328	0.000000	0.248960	0.118918	2.897145	0.462344	0.158162	3.078217	0.409017	0.289138	3.078217	0.284537	0.289138	2.535002	0.231185	0.242499	2.353931	0.142256	0.184205	2.172859	1.778299	1.345230	16.113054	0.000000	0.000000	28.014053	-3.257993	-10.093819	15.309134	-5.195758	61.233507	42.511503	21.790802	-4.254454	4.764277	20.540766	-2.952886	49.005027	46.980293	67.585463	-0.845717	19.122607
2.779661	1.452745	-5.416850	85.127387	0.121262	0.478780	0.868066	1.397032	1.280790	14.803115	1.998485	0.034880	20.226304	-7.144508	0.000000	1.438686	-1.220593	-12.646896	2.644372	0.046153	26.511017	-0.037335	0.000000	0.247013	0.125251	2.856199	0.458727	0.166583	3.034712	0.405817	0.304534	3.034712	0.282311	0.304534	2.499174	0.229376	0.255411	2.320662	0.141143	0.194013	2.142149	1.764388	1.416860	15.885324	0.000000	0.000000	28.006010	-3.487441	-10.145304	15.914990	-4.781650	67.538874	41.652229	17.812153	-4.388494	5.020714	20.797801	-2.736885	51.968048	46.233116	69.083277	-0.021588	18.226700
2.796610	1.631929	-5.347098	85.183085	0.120987	0.479054	0.868091	1.326737	1.435366	14.428752	2.021788	0.035287	20.334364	-6.559301	0.000000	1.354985	-1.380101	-12.353465	2.626140	0.045835	26.415872	-0.334530	0.000000	0.236881	0.141217	2.835995	0.439912	0.187819	3.013245	0.389172	0.343356	3.013245	0.270731	0.343356	2.481496	0.219968	0.287971	2.304246	0.135354	0.218746	2.126996	1.692018	1.597480	15.772955	0.000000	0.000000	27.991984	-3.821692	-10.362798	16.222515	-4.933873	68.907737	42.016528	17.088224	-4.884906	5.790875	21.406831	-2.029926	57.796108	44.205307	68.733571	1.763097	16.220656
2.813559	1.741204	-5.316375	85.314219	0.120820	0.479160	0.867913	1.272756	1.528286	14.128234	2.033518	0.035492	20.459905	-6.167792	0.000000	1.329648	-1.486354	-12.078357	2.641443	0.046102	26.396545	-0.481990	0.000000	0.232172	0.147734	2.773569	0.431167	0.196486	2.946918	0.381436	0.359201	2.946918	0.265350	0.359201	2.426873	0.215595	0.301259	2.253525	0.132663	0.228840	2.080177	1.658383	1.671198	15.425761	0.000000	0.000000	27.989391	-4.024752	-10.345243	16.577490	-4.935967	70.604208	42.156349	16.271228	-5.320506	6.359364	21.453077	-2.177835	57.839073	44.419061	72.035772	2.678278	15.924436
2.830508	1.848448	-5.272018	85.511194	0.120533	0.479281	0.867730	1.192237	1.612413	13.819592	2.035850	0.035532	20.559867	-5.846808	0.000000	1.322384	-1.591781	-11.776674	2.703779	0.047190	26.420165	-0.587695	0.000000	0.225910	0.154576	2.695375	0.419538	0.205586	2.863836	0.371148	0.375836	2.863836	0.258193	0.375836	2.358454	0.209780	0.315211	2.189993	0.129085	0.239438	2.021532	1.613655	1.748594	14.990870	0.000000	0.000000	27.985835	-4.127448	-10.219372	16.886312	-4.895660	72.228628	42.165596	15.659110	-5.658715	6.723475	21.422011	-2.345775	57.744291	44.644801	74.681489	3.563171	15.743826
2.847458	1.945625	-5.208136	85.739716	0.120185	0.479413	0.867564	1.088099	1.680861	13.558292	2.041760	0.035635	20.634234	-5.639996	0.000000	1.320779	-1.687890	-11.482034	2.808533	0.049018	26.477354	-0.666158	0.000000	0.217530	0.160334	2.608802	0.403975	0.213245	2.771852	0.357380	0.389837	2.771852	0.248615	0.389837	2.282702	0.201998	0.326954	2.119651	0.124297	0.248358	1.956601	1.553795	1.813734	14.509373	0.000000	0.000000	27.978845	-4.153942	-10.036395	17.150527	-4.824049	73.805650	42.108789	14.990999	-5.948398	6.950789	21.385420	-2.570506	57.809715	44.846783	76.276199	4.327894	15.579164
